<svg viewBox="0 0 1434 893"  xmlns="http://www.w3.org/2000/svg">
<g opacity="0.7">
<path opacity="0.7" d="M308.757 831.725C319.801 831.725 328.755 822.686 328.755 811.535C328.755 800.384 319.801 791.344 308.757 791.344C297.712 791.344 288.759 800.384 288.759 811.535C288.759 822.686 297.712 831.725 308.757 831.725Z" fill="url(#paint0_linear)"/>
</g>
<path opacity="0.2" d="M308.757 830.818C319.305 830.818 327.856 822.185 327.856 811.535C327.856 800.885 319.305 792.251 308.757 792.251C298.209 792.251 289.657 800.885 289.657 811.535C289.657 822.185 298.209 830.818 308.757 830.818Z" fill="black"/>
<path d="M201.015 425.175C205.096 425.175 208.405 421.835 208.405 417.714C208.405 413.593 205.096 410.252 201.015 410.252C196.933 410.252 193.624 413.593 193.624 417.714C193.624 421.835 196.933 425.175 201.015 425.175Z" fill="white"/>
<path d="M728.495 858.251C732.577 858.251 735.886 854.911 735.886 850.79C735.886 846.669 732.577 843.328 728.495 843.328C724.413 843.328 721.105 846.669 721.105 850.79C721.105 854.911 724.413 858.251 728.495 858.251Z" fill="white"/>
<path d="M416.934 893C419.215 893 421.064 891.133 421.064 888.83C421.064 886.527 419.215 884.66 416.934 884.66C414.653 884.66 412.804 886.527 412.804 888.83C412.804 891.133 414.653 893 416.934 893Z" fill="white"/>
<path d="M1331.33 691.093C1333.61 691.093 1335.46 689.226 1335.46 686.923C1335.46 684.62 1333.61 682.753 1331.33 682.753C1329.05 682.753 1327.2 684.62 1327.2 686.923C1327.2 689.226 1329.05 691.093 1331.33 691.093Z" fill="white"/>
<path d="M1095.12 316.541C1097.4 316.541 1099.25 314.674 1099.25 312.371C1099.25 310.068 1097.4 308.201 1095.12 308.201C1092.84 308.201 1090.99 310.068 1090.99 312.371C1090.99 314.674 1092.84 316.541 1095.12 316.541Z" fill="white"/>
<path d="M1429.87 499.427C1432.15 499.427 1434 497.561 1434 495.258C1434 492.955 1432.15 491.088 1429.87 491.088C1427.59 491.088 1425.74 492.955 1425.74 495.258C1425.74 497.561 1427.59 499.427 1429.87 499.427Z" fill="white"/>
<path d="M331.436 180.838C335.517 180.838 338.826 177.498 338.826 173.377C338.826 169.256 335.517 165.915 331.436 165.915C327.354 165.915 324.045 169.256 324.045 173.377C324.045 177.498 327.354 180.838 331.436 180.838Z" fill="white"/>
<path d="M128.312 678.247H121.733V671.604H119.052V678.247H112.473V680.953H119.052V687.581H121.733V680.953H128.312V678.247Z" fill="white"/>
<path d="M293.512 675.32H286.933V668.678H284.252V675.32H277.673V678.027H284.252V684.655H286.933V678.027H293.512V675.32Z" fill="white"/>
<path d="M529.719 809.925H523.14V803.283H520.459V809.925H513.88V812.632H520.459V819.26H523.14V812.632H529.719V809.925Z" fill="white"/>
<path d="M858.713 3.02862H855.714V0H854.496V3.02862H851.497V4.25761H854.496V7.28621H855.714V4.25761H858.713V3.02862Z" fill="white"/>
<path d="M1286.2 281.017H1283.2V277.988H1281.99V281.017H1278.99V282.246H1281.99V285.274H1283.2V282.246H1286.2V281.017Z" fill="white"/>
<path d="M1034.06 462.44H1031.06V459.412H1029.84V462.44H1026.84V463.669H1029.84V466.698H1031.06V463.669H1034.06V462.44Z" fill="white"/>
<path d="M8.07848 576.562H5.0788V573.533H3.86153V576.562H0.861847V577.791H3.86153V580.819H5.0788V577.791H8.07848V576.562Z" fill="white"/>
<path d="M131.254 825.288H128.254V822.259H127.037V825.288H124.037V826.517H127.037V829.545H128.254V826.517H131.254V825.288Z" fill="white"/>
<path d="M518.169 39.6059H515.17V36.5773H513.953V39.6059H510.953V40.8349H513.953V43.8635H515.17V40.8349H518.169V39.6059Z" fill="white"/>
<path d="M335.58 477.071H332.58V474.043H331.363V477.071H328.363V478.3H331.363V481.329H332.58V478.3H335.58V477.071Z" fill="white"/>
<path d="M374.706 351.245H371.707V348.217H370.489V351.245H367.49V352.474H370.489V355.503H371.707V352.474H374.706V351.245Z" fill="white"/>
<g opacity="0.7">
<path opacity="0.7" d="M990.844 641.611C1000.06 641.611 1007.54 634.065 1007.54 624.756C1007.54 615.447 1000.06 607.901 990.844 607.901C981.624 607.901 974.15 615.447 974.15 624.756C974.15 634.065 981.624 641.611 990.844 641.611Z" fill="url(#paint1_linear)"/>
</g>
<path opacity="0.2" d="M990.844 640.367C999.384 640.367 1006.31 633.378 1006.31 624.756C1006.31 616.134 999.384 609.145 990.844 609.145C982.305 609.145 975.382 616.134 975.382 624.756C975.382 633.378 982.305 640.367 990.844 640.367Z" fill="black"/>
<path opacity="0.2" d="M1032.48 752.104C1042.03 752.104 1049.77 744.289 1049.77 734.649C1049.77 725.009 1042.03 717.194 1032.48 717.194C1022.93 717.194 1015.19 725.009 1015.19 734.649C1015.19 744.289 1022.93 752.104 1032.48 752.104Z" fill="black"/>
<path d="M1009.52 267.293C1005.5 261.957 1000.46 257.481 994.713 254.125V254.125C988.105 250.278 980.709 248.016 973.097 247.516C965.484 247.015 957.86 248.288 950.813 251.238C943.766 254.187 937.485 258.733 932.456 264.524C927.427 270.315 923.785 277.196 921.81 284.636C919.835 292.075 919.582 299.873 921.069 307.427C922.555 314.982 925.743 322.089 930.385 328.201C935.027 334.313 940.998 339.265 947.839 342.675C954.679 346.085 962.204 347.861 969.832 347.865C970.89 347.865 971.948 347.865 972.977 347.748C981.942 347.177 990.587 344.165 997.993 339.032C1005.4 333.898 1011.29 326.835 1015.04 318.593C1018.79 310.351 1020.26 301.237 1019.29 292.22C1018.32 283.203 1014.95 274.619 1009.54 267.381L1009.52 267.293Z" fill="url(#paint2_linear)"/>
<path opacity="0.2" d="M1016.84 297.55C1016.84 309.621 1012.28 321.238 1004.1 330.039C995.917 338.839 984.72 344.162 972.788 344.925C971.817 344.925 970.817 345.027 969.817 345.027C962.6 345.031 955.478 343.359 949.003 340.139C942.528 336.918 936.875 332.237 932.479 326.457C928.084 320.677 925.065 313.953 923.656 306.806C922.247 299.659 922.486 292.28 924.354 285.241C926.223 278.202 929.67 271.692 934.43 266.214C939.19 260.736 945.135 256.438 951.805 253.651C958.474 250.865 965.689 249.666 972.891 250.146C980.093 250.627 987.089 252.774 993.337 256.422V256.422C998.783 259.613 1003.54 263.871 1007.34 268.946V268.946C1013.51 277.176 1016.85 287.223 1016.84 297.55Z" fill="black"/>
<path opacity="0.1" d="M958.239 267.424C955.808 268.481 953.463 269.728 951.225 271.155C949.731 271.979 948.447 273.141 947.472 274.55C946.989 275.259 946.723 276.097 946.707 276.958C946.692 277.819 946.927 278.666 947.385 279.392C948.53 280.973 950.733 281.207 952.674 281.324C954.713 281.586 956.785 281.376 958.732 280.709C960.046 280.053 961.242 279.177 962.268 278.12L966.311 274.418C967.76 273.13 969.209 271.36 968.644 269.546C968.309 268.898 967.82 268.344 967.22 267.936C966.621 267.527 965.929 267.276 965.209 267.205C961.724 266.519 958.111 267.16 955.065 269.005" fill="black"/>
<g opacity="0.1">
<path opacity="0.1" d="M941.357 318.794C942.725 318.794 943.835 317.674 943.835 316.292C943.835 314.91 942.725 313.79 941.357 313.79C939.988 313.79 938.879 314.91 938.879 316.292C938.879 317.674 939.988 318.794 941.357 318.794Z" fill="black"/>
</g>
<g opacity="0.1">
<path opacity="0.1" d="M991.67 309.62C996.68 309.62 1000.74 305.52 1000.74 300.461C1000.74 295.403 996.68 291.302 991.67 291.302C986.66 291.302 982.599 295.403 982.599 300.461C982.599 305.52 986.66 309.62 991.67 309.62Z" fill="black"/>
</g>
<g opacity="0.1">
<path opacity="0.1" d="M1007.42 268.946C1007.4 271.341 1006.69 273.677 1005.38 275.677C1004.08 277.678 1002.23 279.257 1000.07 280.228C997.898 281.199 995.499 281.521 993.155 281.155C990.811 280.789 988.62 279.75 986.844 278.163C985.069 276.575 983.782 274.506 983.137 272.202C982.493 269.897 982.518 267.454 983.21 265.163C983.901 262.873 985.23 260.831 987.039 259.281C988.847 257.731 991.058 256.739 993.409 256.422V256.422C998.861 259.611 1003.63 263.869 1007.42 268.946Z" fill="black"/>
</g>
<g opacity="0.1">
<path opacity="0.1" d="M1008.26 324.88C1004.22 330.694 998.929 335.514 992.788 338.984C986.647 342.454 979.812 344.484 972.788 344.925C972.788 344.266 972.701 343.608 972.701 342.935C972.705 338.768 973.855 334.684 976.022 331.139C978.189 327.593 981.289 324.724 984.976 322.853C988.663 320.981 992.792 320.179 996.904 320.537C1001.02 320.895 1004.95 322.399 1008.26 324.88V324.88Z" fill="black"/>
</g>
<path d="M367.156 538.331C364.35 534.585 360.833 531.442 356.81 529.084V529.084C352.192 526.349 347.011 524.727 341.671 524.345C336.331 523.962 330.975 524.83 326.021 526.88C321.067 528.93 316.649 532.107 313.111 536.163C309.572 540.22 307.009 545.046 305.621 550.267C304.233 555.487 304.057 560.961 305.108 566.261C306.158 571.561 308.407 576.545 311.678 580.825C314.948 585.104 319.154 588.563 323.966 590.932C328.778 593.302 334.067 594.517 339.42 594.485C340.159 594.485 340.869 594.485 341.623 594.412C347.867 593.987 353.881 591.87 359.033 588.283C364.185 584.695 368.282 579.771 370.893 574.029C373.505 568.287 374.533 561.94 373.87 555.657C373.208 549.375 370.878 543.389 367.127 538.331H367.156Z" fill="url(#paint3_linear)"/>
<path opacity="0.2" d="M372.257 559.444C372.256 567.865 369.077 575.97 363.367 582.11C357.658 588.25 349.846 591.963 341.521 592.495C340.84 592.495 340.072 592.495 339.449 592.495C334.418 592.494 329.454 591.324 324.941 589.076C320.429 586.829 316.489 583.563 313.426 579.532C310.364 575.502 308.261 570.814 307.279 565.831C306.298 560.849 306.465 555.705 307.767 550.798C309.069 545.891 311.472 541.352 314.789 537.532C318.106 533.712 322.249 530.714 326.898 528.769C331.546 526.825 336.575 525.985 341.596 526.316C346.617 526.648 351.495 528.14 355.853 530.679V530.679C359.659 532.915 362.98 535.9 365.62 539.458C369.941 545.206 372.272 552.228 372.257 559.444V559.444Z" fill="black"/>
<path opacity="0.1" d="M331.363 538.434C329.669 539.162 328.035 540.028 326.48 541.023C325.442 541.608 324.547 542.417 323.857 543.393C323.535 543.897 323.363 544.484 323.363 545.083C323.363 545.683 323.535 546.27 323.857 546.773C324.338 547.253 324.916 547.621 325.551 547.853C326.186 548.086 326.864 548.176 327.537 548.119C328.962 548.305 330.409 548.16 331.769 547.695C332.69 547.236 333.528 546.622 334.247 545.881L337.058 543.306C338.044 542.399 339.116 541.17 338.681 539.911C338.459 539.451 338.122 539.057 337.702 538.77C337.283 538.482 336.796 538.311 336.29 538.273C333.865 537.793 331.349 538.241 329.233 539.531" fill="black"/>
<g opacity="0.1">
<path opacity="0.1" d="M319.582 574.25C320.534 574.25 321.306 573.47 321.306 572.509C321.306 571.547 320.534 570.768 319.582 570.768C318.629 570.768 317.857 571.547 317.857 572.509C317.857 573.47 318.629 574.25 319.582 574.25Z" fill="black"/>
</g>
<g opacity="0.1">
<path opacity="0.1" d="M354.694 567.871C358.191 567.871 361.027 565.009 361.027 561.477C361.027 557.946 358.191 555.084 354.694 555.084C351.197 555.084 348.361 557.946 348.361 561.477C348.361 565.009 351.197 567.871 354.694 567.871Z" fill="black"/>
</g>
<g opacity="0.1">
<path opacity="0.1" d="M365.635 539.487C365.622 541.173 365.128 542.82 364.212 544.231C363.296 545.641 361.998 546.755 360.471 547.44C358.945 548.125 357.255 548.351 355.605 548.092C353.954 547.833 352.412 547.1 351.164 545.979C349.916 544.859 349.013 543.399 348.565 541.774C348.116 540.15 348.141 538.429 348.636 536.818C349.13 535.208 350.074 533.775 351.354 532.691C352.634 531.608 354.196 530.919 355.853 530.708C359.664 532.943 362.99 535.928 365.635 539.487V539.487Z" fill="black"/>
</g>
<g opacity="0.1">
<path opacity="0.1" d="M366.273 578.508C363.45 582.564 359.76 585.927 355.475 588.348C351.191 590.77 346.422 592.187 341.522 592.495C341.522 592.041 341.522 591.573 341.522 591.032C341.524 588.125 342.326 585.276 343.838 582.802C345.35 580.328 347.512 578.327 350.084 577.021C352.657 575.715 355.537 575.155 358.406 575.405C361.274 575.655 364.018 576.703 366.331 578.435L366.273 578.508Z" fill="black"/>
</g>
<path d="M1290.45 441.021C1291.92 441.021 1293.12 439.815 1293.12 438.329C1293.12 436.842 1291.92 435.636 1290.45 435.636C1288.98 435.636 1287.78 436.842 1287.78 438.329C1287.78 439.815 1288.98 441.021 1290.45 441.021Z" fill="white"/>
<defs>
<linearGradient id="paint0_linear" x1="308.757" y1="831.725" x2="308.757" y2="791.359" gradientUnits="userSpaceOnUse">
<stop stop-color="#808080" stop-opacity="0.25"/>
<stop offset="0.54" stop-color="#808080" stop-opacity="0.12"/>
<stop offset="1" stop-color="#808080" stop-opacity="0.1"/>
</linearGradient>
<linearGradient id="paint1_linear" x1="25953.2" y1="19726.7" x2="25953.2" y2="18950.3" gradientUnits="userSpaceOnUse">
<stop stop-color="#808080" stop-opacity="0.25"/>
<stop offset="0.54" stop-color="#808080" stop-opacity="0.12"/>
<stop offset="1" stop-color="#808080" stop-opacity="0.1"/>
</linearGradient>
<linearGradient id="paint2_linear" x1="77114.7" y1="41357.1" x2="77114.7" y2="34459.7" gradientUnits="userSpaceOnUse">
<stop stop-color="#808080" stop-opacity="0.25"/>
<stop offset="0.54" stop-color="#808080" stop-opacity="0.12"/>
<stop offset="1" stop-color="#808080" stop-opacity="0.1"/>
</linearGradient>
<linearGradient id="paint3_linear" x1="23356.9" y1="41105.8" x2="23356.9" y2="37741.1" gradientUnits="userSpaceOnUse">
<stop stop-color="#808080" stop-opacity="0.25"/>
<stop offset="0.54" stop-color="#808080" stop-opacity="0.12"/>
<stop offset="1" stop-color="#808080" stop-opacity="0.1"/>
</linearGradient>
</defs>
</svg>
