<svg data-v-fde0c5aa="" xmlns="http://www.w3.org/2000/svg" viewBox="0 0 300 300" class="iconLeft"><!----><defs data-v-fde0c5aa=""><!----></defs><rect data-v-fde0c5aa="" fill="transparent" x="0" y="0" width="300px" height="300px" class="logo-background-square"></rect><defs data-v-fde0c5aa=""><!----></defs><g data-v-fde0c5aa="" id="2846cd97-18b9-41be-a7f6-a360c7beccc3" fill="#000000" transform="matrix(2.108116997900952,0,0,2.108116997900952,92.13065565559523,126.93719992233618)"><path d="M4.88 12.61L4.88 12.61L4.88 12.61Q4.66 12.79 4.40 13.00L4.40 13.00L4.40 13.00Q4.14 13.20 3.82 13.37L3.82 13.37L3.82 13.37Q3.51 13.55 3.17 13.67L3.17 13.67L3.17 13.67Q2.82 13.78 2.43 13.78L2.43 13.78L2.43 13.78Q1.93 13.78 1.57 13.58L1.57 13.58L1.57 13.58Q1.21 13.38 0.98 13.07L0.98 13.07L0.98 13.07Q0.76 12.76 0.65 12.40L0.65 12.40L0.65 12.40Q0.55 12.03 0.55 11.70L0.55 11.70L0.55 11.70Q0.55 11.17 0.80 10.73L0.80 10.73L0.80 10.73Q1.05 10.28 1.56 9.96L1.56 9.96L1.56 9.96Q2.06 9.63 2.83 9.45L2.83 9.45L2.83 9.45Q3.60 9.27 4.62 9.27L4.62 9.27L4.77 9.27L4.77 8.91L4.77 8.91Q4.77 8.39 4.45 8.13L4.45 8.13L4.45 8.13Q4.13 7.88 3.58 7.88L3.58 7.88L3.58 7.88Q3.33 7.88 3.05 7.94L3.05 7.94L3.05 7.94Q2.78 8.00 2.50 8.11L2.50 8.11L2.50 8.11Q2.21 8.22 1.94 8.36L1.94 8.36L1.94 8.36Q1.67 8.50 1.42 8.67L1.42 8.67L1.30 8.60L0.85 7.01L0.85 7.01Q1.76 6.62 2.58 6.44L2.58 6.44L2.58 6.44Q3.40 6.26 4.23 6.26L4.23 6.26L4.23 6.26Q4.89 6.26 5.48 6.38L5.48 6.38L5.48 6.38Q6.07 6.50 6.52 6.78L6.52 6.78L6.52 6.78Q6.97 7.05 7.24 7.52L7.24 7.52L7.24 7.52Q7.51 7.98 7.51 8.67L7.51 8.67L7.51 11.36L7.51 11.36Q7.51 11.63 7.61 11.82L7.61 11.82L7.61 11.82Q7.71 12.02 8.00 12.02L8.00 12.02L8.00 12.02Q8.09 12.02 8.17 12.01L8.17 12.01L8.17 12.01Q8.24 12.00 8.34 11.96L8.34 11.96L8.34 13.07L8.34 13.07Q7.85 13.41 7.37 13.60L7.37 13.60L7.37 13.60Q6.88 13.78 6.43 13.78L6.43 13.78L6.43 13.78Q5.90 13.78 5.51 13.50L5.51 13.50L5.51 13.50Q5.12 13.23 4.88 12.61ZM4.77 11.70L4.77 10.12L4.59 10.12L4.59 10.12Q4.14 10.12 3.83 10.19L3.83 10.19L3.83 10.19Q3.52 10.25 3.33 10.38L3.33 10.38L3.33 10.38Q3.14 10.51 3.05 10.70L3.05 10.70L3.05 10.70Q2.97 10.89 2.97 11.14L2.97 11.14L2.97 11.14Q2.97 11.38 3.04 11.55L3.04 11.55L3.04 11.55Q3.11 11.72 3.23 11.82L3.23 11.82L3.23 11.82Q3.35 11.93 3.50 11.97L3.50 11.97L3.50 11.97Q3.66 12.02 3.82 12.02L3.82 12.02L3.82 12.02Q4.04 12.02 4.29 11.94L4.29 11.94L4.29 11.94Q4.53 11.87 4.77 11.70L4.77 11.70ZM9.04 13.26L9.41 11.57L9.53 11.50L9.53 11.50Q9.82 11.66 10.12 11.78L10.12 11.78L10.12 11.78Q10.42 11.90 10.72 11.99L10.72 11.99L10.72 11.99Q11.02 12.07 11.31 12.12L11.31 12.12L11.31 12.12Q11.59 12.17 11.85 12.17L11.85 12.17L11.85 12.17Q12.13 12.17 12.31 12.12L12.31 12.12L12.31 12.12Q12.50 12.07 12.61 11.98L12.61 11.98L12.61 11.98Q12.72 11.90 12.77 11.80L12.77 11.80L12.77 11.80Q12.82 11.69 12.82 11.58L12.82 11.58L12.82 11.58Q12.82 11.38 12.67 11.25L12.67 11.25L12.67 11.25Q12.52 11.12 12.27 11.03L12.27 11.03L12.27 11.03Q12.02 10.94 11.70 10.88L11.70 10.88L11.70 10.88Q11.38 10.81 11.05 10.71L11.05 10.71L11.05 10.71Q10.71 10.62 10.39 10.48L10.39 10.48L10.39 10.48Q10.08 10.34 9.83 10.11L9.83 10.11L9.83 10.11Q9.58 9.89 9.42 9.56L9.42 9.56L9.42 9.56Q9.27 9.23 9.27 8.75L9.27 8.75L9.27 8.75Q9.27 8.19 9.50 7.73L9.50 7.73L9.50 7.73Q9.72 7.27 10.17 6.95L10.17 6.95L10.17 6.95Q10.62 6.62 11.30 6.44L11.30 6.44L11.30 6.44Q11.97 6.26 12.86 6.26L12.86 6.26L12.86 6.26Q13.09 6.26 13.37 6.28L13.37 6.28L13.37 6.28Q13.66 6.29 13.94 6.32L13.94 6.32L13.94 6.32Q14.23 6.34 14.49 6.39L14.49 6.39L14.49 6.39Q14.76 6.43 14.96 6.49L14.96 6.49L14.59 8.19L14.46 8.26L14.46 8.26Q13.94 8.05 13.46 7.96L13.46 7.96L13.46 7.96Q12.99 7.88 12.65 7.88L12.65 7.88L12.65 7.88Q12.39 7.88 12.21 7.92L12.21 7.92L12.21 7.92Q12.03 7.97 11.93 8.05L11.93 8.05L11.93 8.05Q11.82 8.13 11.77 8.23L11.77 8.23L11.77 8.23Q11.73 8.33 11.73 8.44L11.73 8.44L11.73 8.44Q11.73 8.65 11.88 8.78L11.88 8.78L11.88 8.78Q12.04 8.91 12.29 9.00L12.29 9.00L12.29 9.00Q12.54 9.09 12.85 9.16L12.85 9.16L12.85 9.16Q13.17 9.23 13.51 9.32L13.51 9.32L13.51 9.32Q13.84 9.41 14.16 9.54L14.16 9.54L14.16 9.54Q14.48 9.67 14.73 9.88L14.73 9.88L14.73 9.88Q14.98 10.10 15.13 10.43L15.13 10.43L15.13 10.43Q15.29 10.75 15.29 11.22L15.29 11.22L15.29 11.22Q15.29 11.72 15.09 12.19L15.09 12.19L15.09 12.19Q14.90 12.65 14.49 13.00L14.49 13.00L14.49 13.00Q14.07 13.36 13.42 13.57L13.42 13.57L13.42 13.57Q12.76 13.78 11.84 13.78L11.84 13.78L11.84 13.78Q11.50 13.78 11.13 13.75L11.13 13.75L11.13 13.75Q10.77 13.72 10.40 13.65L10.40 13.65L10.40 13.65Q10.04 13.59 9.69 13.49L9.69 13.49L9.69 13.49Q9.34 13.40 9.04 13.26L9.04 13.26ZM17.28 11.07L17.28 8.01L15.83 8.01L16.00 6.89L16.00 6.89Q16.37 6.75 16.63 6.62L16.63 6.62L16.63 6.62Q16.90 6.50 17.10 6.37L17.10 6.37L17.10 6.37Q17.31 6.23 17.47 6.08L17.47 6.08L17.47 6.08Q17.62 5.92 17.77 5.71L17.77 5.71L17.77 5.71Q17.92 5.50 18.08 5.22L18.08 5.22L18.08 5.22Q18.25 4.94 18.46 4.57L18.46 4.57L19.82 4.57L19.82 6.40L22.37 6.40L22.01 8.01L20.02 8.01L20.02 10.79L20.02 10.79Q20.02 11.47 20.36 11.74L20.36 11.74L20.36 11.74Q20.71 12.02 21.38 12.02L21.38 12.02L21.38 12.02Q21.62 12.02 21.87 11.98L21.87 11.98L21.87 11.98Q22.13 11.94 22.37 11.84L22.37 11.84L22.37 12.95L22.37 12.95Q21.81 13.38 21.11 13.58L21.11 13.58L21.11 13.58Q20.41 13.78 19.73 13.78L19.73 13.78L19.73 13.78Q19.04 13.78 18.58 13.59L18.58 13.59L18.58 13.59Q18.11 13.40 17.82 13.05L17.82 13.05L17.82 13.05Q17.53 12.69 17.41 12.20L17.41 12.20L17.41 12.20Q17.28 11.70 17.28 11.07L17.28 11.07ZM23.88 13.64L23.88 6.40L26.22 6.40L26.53 8.50L26.53 8.50Q26.65 8.29 26.76 8.08L26.76 8.08L26.76 8.08Q26.88 7.88 26.98 7.70L26.98 7.70L26.98 7.70Q27.08 7.53 27.15 7.40L27.15 7.40L27.15 7.40Q27.22 7.27 27.24 7.23L27.24 7.23L27.24 7.23Q27.37 7.02 27.52 6.84L27.52 6.84L27.52 6.84Q27.68 6.67 27.87 6.54L27.87 6.54L27.87 6.54Q28.07 6.41 28.31 6.33L28.31 6.33L28.31 6.33Q28.55 6.26 28.86 6.26L28.86 6.26L28.86 6.26Q29.06 6.26 29.32 6.32L29.32 6.32L29.32 6.32Q29.57 6.37 29.80 6.49L29.80 6.49L29.50 8.93L29.50 8.93Q29.43 8.91 29.32 8.90L29.32 8.90L29.32 8.90Q29.20 8.89 29.07 8.89L29.07 8.89L29.07 8.89Q28.94 8.88 28.82 8.88L28.82 8.88L28.82 8.88Q28.70 8.87 28.61 8.87L28.61 8.87L28.61 8.87Q28.31 8.87 28.01 8.91L28.01 8.91L28.01 8.91Q27.72 8.96 27.46 9.03L27.46 9.03L27.46 9.03Q27.19 9.11 26.97 9.23L26.97 9.23L26.97 9.23Q26.76 9.34 26.61 9.47L26.61 9.47L26.61 13.64L23.88 13.64ZM34.31 13.78L34.31 13.78L34.31 13.78Q33.33 13.78 32.60 13.49L32.60 13.49L32.60 13.49Q31.88 13.20 31.41 12.71L31.41 12.71L31.41 12.71Q30.94 12.22 30.71 11.57L30.71 11.57L30.71 11.57Q30.47 10.92 30.47 10.21L30.47 10.21L30.47 10.21Q30.47 9.38 30.78 8.66L30.78 8.66L30.78 8.66Q31.08 7.94 31.65 7.40L31.65 7.40L31.65 7.40Q32.21 6.87 33.01 6.57L33.01 6.57L33.01 6.57Q33.81 6.26 34.81 6.26L34.81 6.26L34.81 6.26Q35.77 6.26 36.49 6.55L36.49 6.55L36.49 6.55Q37.21 6.83 37.69 7.32L37.69 7.32L37.69 7.32Q38.17 7.81 38.41 8.46L38.41 8.46L38.41 8.46Q38.65 9.11 38.65 9.84L38.65 9.84L38.65 9.84Q38.65 10.69 38.34 11.42L38.34 11.42L38.34 11.42Q38.03 12.14 37.46 12.67L37.46 12.67L37.46 12.67Q36.89 13.19 36.09 13.49L36.09 13.49L36.09 13.49Q35.29 13.78 34.31 13.78ZM34.60 12.17L34.60 12.17L34.60 12.17Q34.86 12.17 35.09 12.05L35.09 12.05L35.09 12.05Q35.32 11.94 35.49 11.68L35.49 11.68L35.49 11.68Q35.66 11.43 35.75 11.04L35.75 11.04L35.75 11.04Q35.85 10.66 35.85 10.11L35.85 10.11L35.85 10.11Q35.85 9.60 35.76 9.19L35.76 9.19L35.76 9.19Q35.67 8.78 35.50 8.49L35.50 8.49L35.50 8.49Q35.33 8.20 35.09 8.04L35.09 8.04L35.09 8.04Q34.84 7.88 34.52 7.88L34.52 7.88L34.52 7.88Q33.97 7.88 33.62 8.39L33.62 8.39L33.62 8.39Q33.28 8.90 33.28 9.95L33.28 9.95L33.28 9.95Q33.28 10.49 33.37 10.90L33.37 10.90L33.37 10.90Q33.47 11.31 33.64 11.60L33.64 11.60L33.64 11.60Q33.82 11.88 34.06 12.02L34.06 12.02L34.06 12.02Q34.30 12.17 34.60 12.17ZM40.15 13.64L40.15 6.40L42.49 6.40L42.81 7.56L42.81 7.56Q43.04 7.37 43.32 7.14L43.32 7.14L43.32 7.14Q43.61 6.91 43.93 6.72L43.93 6.72L43.93 6.72Q44.26 6.52 44.64 6.39L44.64 6.39L44.64 6.39Q45.01 6.26 45.43 6.26L45.43 6.26L45.43 6.26Q45.94 6.26 46.36 6.44L46.36 6.44L46.36 6.44Q46.78 6.61 47.08 6.94L47.08 6.94L47.08 6.94Q47.38 7.26 47.55 7.72L47.55 7.72L47.55 7.72Q47.71 8.18 47.71 8.74L47.71 8.74L47.71 13.64L44.98 13.64L44.98 9.15L44.98 9.15Q44.98 8.87 44.91 8.66L44.91 8.66L44.91 8.66Q44.83 8.45 44.70 8.31L44.70 8.31L44.70 8.31Q44.56 8.17 44.39 8.10L44.39 8.10L44.39 8.10Q44.21 8.03 44.02 8.03L44.02 8.03L44.02 8.03Q43.72 8.03 43.43 8.18L43.43 8.18L43.43 8.18Q43.15 8.33 42.89 8.53L42.89 8.53L42.89 13.64L40.15 13.64ZM53.05 13.78L53.05 13.78L53.05 13.78Q52.07 13.78 51.35 13.49L51.35 13.49L51.35 13.49Q50.63 13.20 50.16 12.71L50.16 12.71L50.16 12.71Q49.68 12.22 49.45 11.57L49.45 11.57L49.45 11.57Q49.22 10.92 49.22 10.21L49.22 10.21L49.22 10.21Q49.22 9.38 49.52 8.66L49.52 8.66L49.52 8.66Q49.83 7.94 50.39 7.40L50.39 7.40L50.39 7.40Q50.96 6.87 51.75 6.57L51.75 6.57L51.75 6.57Q52.55 6.26 53.55 6.26L53.55 6.26L53.55 6.26Q54.52 6.26 55.24 6.55L55.24 6.55L55.24 6.55Q55.96 6.83 56.44 7.32L56.44 7.32L56.44 7.32Q56.92 7.81 57.16 8.46L57.16 8.46L57.16 8.46Q57.39 9.11 57.39 9.84L57.39 9.84L57.39 9.84Q57.39 10.69 57.08 11.42L57.08 11.42L57.08 11.42Q56.77 12.14 56.20 12.67L56.20 12.67L56.20 12.67Q55.63 13.19 54.83 13.49L54.83 13.49L54.83 13.49Q54.03 13.78 53.05 13.78ZM53.35 12.17L53.35 12.17L53.35 12.17Q53.61 12.17 53.84 12.05L53.84 12.05L53.84 12.05Q54.07 11.94 54.23 11.68L54.23 11.68L54.23 11.68Q54.40 11.43 54.50 11.04L54.50 11.04L54.50 11.04Q54.59 10.66 54.59 10.11L54.59 10.11L54.59 10.11Q54.59 9.60 54.50 9.19L54.50 9.19L54.50 9.19Q54.41 8.78 54.25 8.49L54.25 8.49L54.25 8.49Q54.08 8.20 53.83 8.04L53.83 8.04L53.83 8.04Q53.58 7.88 53.27 7.88L53.27 7.88L53.27 7.88Q52.71 7.88 52.37 8.39L52.37 8.39L52.37 8.39Q52.02 8.90 52.02 9.95L52.02 9.95L52.02 9.95Q52.02 10.49 52.12 10.90L52.12 10.90L52.12 10.90Q52.21 11.31 52.39 11.60L52.39 11.60L52.39 11.60Q52.56 11.88 52.80 12.02L52.80 12.02L52.80 12.02Q53.05 12.17 53.35 12.17ZM58.90 13.64L58.90 6.40L61.24 6.40L61.55 7.56L61.55 7.56Q61.80 7.35 62.08 7.12L62.08 7.12L62.08 7.12Q62.36 6.88 62.68 6.70L62.68 6.70L62.68 6.70Q62.99 6.51 63.33 6.38L63.33 6.38L63.33 6.38Q63.68 6.26 64.04 6.26L64.04 6.26L64.04 6.26Q64.44 6.26 64.76 6.37L64.76 6.37L64.76 6.37Q65.09 6.49 65.35 6.68L65.35 6.68L65.35 6.68Q65.60 6.87 65.79 7.11L65.79 7.11L65.79 7.11Q65.97 7.36 66.08 7.61L66.08 7.61L66.08 7.61Q66.36 7.38 66.65 7.13L66.65 7.13L66.65 7.13Q66.94 6.89 67.26 6.70L67.26 6.70L67.26 6.70Q67.58 6.51 67.93 6.38L67.93 6.38L67.93 6.38Q68.28 6.26 68.69 6.26L68.69 6.26L68.69 6.26Q69.21 6.26 69.63 6.46L69.63 6.46L69.63 6.46Q70.05 6.66 70.35 7.00L70.35 7.00L70.35 7.00Q70.64 7.33 70.80 7.79L70.80 7.79L70.80 7.79Q70.96 8.24 70.96 8.75L70.96 8.75L70.96 13.64L68.22 13.64L68.22 9.15L68.22 9.15Q68.22 8.62 67.97 8.32L67.97 8.32L67.97 8.32Q67.72 8.03 67.33 8.03L67.33 8.03L67.33 8.03Q67.05 8.03 66.79 8.17L66.79 8.17L66.79 8.17Q66.54 8.31 66.28 8.53L66.28 8.53L66.28 8.53Q66.29 8.59 66.29 8.64L66.29 8.64L66.29 8.64Q66.29 8.70 66.29 8.75L66.29 8.75L66.29 13.64L63.56 13.64L63.56 9.15L63.56 9.15Q63.56 8.62 63.31 8.32L63.31 8.32L63.31 8.32Q63.06 8.03 62.67 8.03L62.67 8.03L62.67 8.03Q62.41 8.03 62.15 8.17L62.15 8.17L62.15 8.17Q61.89 8.31 61.63 8.53L61.63 8.53L61.63 13.64L58.90 13.64ZM74.22 13.64L72.00 6.40L74.92 6.40L75.81 10.27L76.08 11.73L76.21 11.73L76.47 10.27L77.38 6.40L79.63 6.40L76.28 17.31L73.94 17.31L75.52 13.64L74.22 13.64Z"></path></g><defs data-v-fde0c5aa=""><!----></defs><g data-v-fde0c5aa="" id="474b46b0-d389-43aa-b4a8-c706b2d4d3d2" stroke="none" fill="#006678" transform="matrix(0.40286517749999706,0,0,0.40286517749999706,39.97845317374749,129.8566781158438)"><path d="M27.159 78.945c7.414-3.59 18.067-11.203 29.313-22.434 8.445-8.435 15.599-17.303 20.143-24.972a56.044 56.044 0 0 0 2.458-4.595C72.288 18.454 61.855 13 50.167 13c-20.402 0-37 16.598-37 37 0 11.711 5.475 22.16 13.992 28.945zM50.543 86.99c20.107-.202 36.42-16.52 36.614-36.63-4.851 6.591-10.606 13.281-17.084 19.75-6.396 6.389-13.01 12.075-19.53 16.88z"></path><path d="M96.963 3.096c-6.135-6.127-20.19-2.853-36.331 7.128 4.798 1.168 9.25 3.151 13.203 5.914 4.457-1.828 8.616-1.82 10.253-.185 2.379 2.375 1.308 7.779-2.37 14.75l-.028-.048c-4.305 8.177-12.211 18.521-22.391 28.688C49.24 69.388 39.006 77.218 30.863 81.552l.026.016c-7.085 3.766-12.582 4.88-14.985 2.479-1.888-1.885-1.61-5.684.533-10.845-2.77-3.974-4.759-8.419-5.916-13.192C.476 76.178-3.015 90.867 3.031 96.905c9.555 9.542 38.331-3.721 64.269-29.625 25.938-25.903 39.219-54.642 29.663-64.184z"></path></g><!----></svg>